<?xml version="1.0" standalone="no"?>
<!DOCTYPE svg PUBLIC "-//W3C//DTD SVG 20010904//EN"
 "http://www.w3.org/TR/2001/REC-SVG-20010904/DTD/svg10.dtd">
<svg version="1.0" xmlns="http://www.w3.org/2000/svg"
 width="319.000000pt" height="319.000000pt" viewBox="0 0 319.000000 319.000000"
 preserveAspectRatio="xMidYMid meet">
<metadata>
Created by potrace 1.11, written by Peter Selinger 2001-2013
</metadata>
<g transform="translate(0.000000,319.000000) scale(0.100000,-0.100000)"
fill="#000000" stroke="none">
<path d="M967 2780 c-26 -16 -49 -30 -52 -30 -2 0 -43 -23 -92 -51 -48 -28
-112 -65 -142 -81 -29 -16 -148 -83 -265 -150 -116 -67 -236 -135 -266 -151
-30 -17 -75 -43 -100 -57 l-45 -26 -3 -922 -2 -922 37 22 c21 11 58 32 83 46
58 32 83 47 205 117 55 32 125 71 155 88 30 17 72 41 92 54 21 13 40 23 43 23
3 0 23 11 45 25 22 14 64 38 92 54 29 16 101 56 161 90 l107 61 183 -93 c100
-52 331 -170 512 -262 182 -92 354 -181 384 -197 l53 -29 519 288 519 288 0
917 c0 648 -3 918 -11 918 -6 0 -41 -17 -77 -39 -74 -43 -142 -80 -217 -121
-27 -15 -99 -55 -159 -89 -60 -33 -110 -61 -111 -61 -2 0 -36 -19 -77 -43 -40
-24 -107 -62 -148 -84 -41 -22 -111 -61 -155 -86 l-80 -46 -375 191 c-206 105
-462 235 -568 289 -105 55 -193 99 -195 99 -2 0 -24 -13 -50 -30z"/>
</g>
</svg>
