<svg height="19" viewBox="0 0 158 19" width="158" xmlns="http://www.w3.org/2000/svg"><g fill="none" transform="translate(.06 .76)"><path d="m7.18 14.48c.68 0 1.29333333-.0566667 1.84-.17s1.05-.28 1.51-.5.8833333-.4833333 1.27-.79.76-.6533333 1.12-1.04l-1.96-1.98c-.5466667.5066667-1.09666667.9066667-1.65 1.2s-1.23.44-2.03.44c-.6 0-1.15-.1166667-1.65-.35s-.92666667-.55-1.28-.95-.63-.86666667-.83-1.4-.3-1.1-.3-1.7v-.04c0-.6.1-1.16333333.3-1.69s.48-.99.84-1.39.79-.71333333 1.29-.94 1.04333333-.34 1.63-.34c.70666667 0 1.34333333.14 1.91.42s1.1233333.66666667 1.67 1.16l1.96-2.26c-.32-.32-.6666667-.61333333-1.04-.88s-.78-.49333333-1.22-.68-.93-.33333333-1.47-.44-1.13666667-.16-1.79-.16c-1.08 0-2.06666667.19-2.96.57s-1.66.9-2.3 1.56-1.14 1.42666667-1.5 2.3-.54 1.81-.54 2.81v.04c0 1 .18 1.94.54 2.82s.86 1.6433333 1.5 2.29 1.4 1.1566667 2.28 1.53 1.83333333.56 2.86.56zm15 0c1.08 0 2.0766667-.19 2.99-.57s1.7-.9 2.36-1.56 1.1766667-1.4266667 1.55-2.3c.3733333-.87333333.56-1.81.56-2.81v-.04c0-1-.1833333-1.93666667-.55-2.81s-.88-1.63333333-1.54-2.28-1.4433333-1.16-2.35-1.54-1.9-.57-2.98-.57-2.0766667.19-2.99.57-1.7.9-2.36 1.56-1.1766667 1.42666667-1.55 2.3-.56 1.81-.56 2.81v.04c0 1 .1833333 1.93666667.55 2.81.3666667.8733333.88 1.6333333 1.54 2.28s1.4433333 1.16 2.35 1.54 1.9.57 2.98.57zm.04-2.84c-.6266667 0-1.1966667-.1166667-1.71-.35s-.96-.55-1.34-.95-.6733333-.86666667-.88-1.4-.31-1.1-.31-1.7v-.04c0-.6.1033333-1.16333333.31-1.69s.4933333-.99.86-1.39.8066667-.71333333 1.32-.94 1.0833333-.34 1.71-.34c.6133333 0 1.18.11666667 1.7.35s.97.55 1.35.95.6733333.86666667.88 1.4.31 1.1.31 1.7v.04c0 .6-.1033333 1.16333333-.31 1.69s-.4933333.99-.86 1.39-.81.7133333-1.33.94-1.0866667.34-1.7.34zm17.34 2.7 5.66-14.1h-3.32l-3.66 9.86-3.66-9.86h-3.4l5.66 14.1zm11.04-.1v-14h-3.08v14zm8.96 0c1.0933333 0 2.0966667-.18 3.01-.54s1.7-.8533333 2.36-1.48 1.17-1.3666667 1.53-2.22c.36-.85333333.54-1.77333333.54-2.76v-.04c0-.98666667-.18-1.90333333-.54-2.75s-.87-1.58333333-1.53-2.21-1.4466667-1.11666667-2.36-1.47-1.9166667-.53-3.01-.53h-5.46v14zm0-2.78h-2.38v-8.44h2.38c.6266667 0 1.2.10333333 1.72.31s.9633333.49666667 1.33.87.6533333.82.86 1.34.31 1.08666667.31 1.7v.04c0 .62666667-.1033333 1.19333333-.31 1.7s-.4933333.94666667-.86 1.32c-.3666667.3733333-.81.66-1.33.86s-1.0933333.3-1.72.3z" fill="#fff"/><path d="m76.3 14.48c.68 0 1.2933333-.0566667 1.84-.17s1.05-.28 1.51-.5.8833333-.4833333 1.27-.79.76-.6533333 1.12-1.04l-1.96-1.98c-.5466667.5066667-1.0966667.9066667-1.65 1.2s-1.23.44-2.03.44c-.6 0-1.15-.1166667-1.65-.35s-.9266667-.55-1.28-.95-.63-.86666667-.83-1.4-.3-1.1-.3-1.7v-.04c0-.6.1-1.16333333.3-1.69s.48-.99.84-1.39.79-.71333333 1.29-.94 1.0433333-.34 1.63-.34c.7066667 0 1.3433333.14 1.91.42s1.1233333.66666667 1.67 1.16l1.96-2.26c-.32-.32-.6666667-.61333333-1.04-.88s-.78-.49333333-1.22-.68-.93-.33333333-1.47-.44-1.1366667-.16-1.79-.16c-1.08 0-2.0666667.19-2.96.57s-1.66.9-2.3 1.56-1.14 1.42666667-1.5 2.3-.54 1.81-.54 2.81v.04c0 1 .18 1.94.54 2.82s.86 1.6433333 1.5 2.29 1.4 1.1566667 2.28 1.53 1.8333333.56 2.86.56zm10.92-.04c.7466667 0 1.38-.1233333 1.9-.37s.9666667-.5766667 1.34-.99v1.16h2.94v-6.22c0-.72-.0933333-1.37-.28-1.95s-.48-1.07-.88-1.47c-.3866667-.38666667-.8766667-.68333333-1.47-.89s-1.31-.31-2.15-.31c-.9066667 0-1.68.08-2.32.24s-1.2533333.36666667-1.84.62l.76 2.32c.4933333-.18666667.9633333-.33 1.41-.43s.9633333-.15 1.55-.15c.76 0 1.3333333.16666667 1.72.5s.58.82.58 1.46v.18c-.3866667-.13333333-.7833333-.24-1.19-.32s-.8833333-.12-1.43-.12c-.64 0-1.2233333.07-1.75.21s-.98.35-1.36.63-.6766667.63333333-.89 1.06c-.2133333.4266667-.32.9333333-.32 1.52v.04c0 .5333333.0966667 1.0033333.29 1.41s.4566667.75.79 1.03.7233333.49 1.17.63.9233333.21 1.43.21zm.92-2.1c-.4933333 0-.8933333-.1133333-1.2-.34s-.46-.5466667-.46-.96v-.04c0-.48.1866667-.8466667.56-1.1.3733333-.25333333.8866667-.38 1.54-.38.3733333 0 .7233333.03666667 1.05.11s.6233333.17.89.29v.54c0 .56-.2166667 1.0133333-.65 1.36s-1.01.52-1.73.52zm10.92 1.9v-3.96c0-1.29333333.29-2.24666667.87-2.86s1.376667-.92 2.39-.92h.16v-3.18c-.906667-.04-1.626667.16-2.16.6-.5333333.44-.9533333 1.02666667-1.26 1.76v-2.16h-3.04v10.72zm10.4.24c.973333 0 1.82-.1766667 2.54-.53s1.333333-.8433333 1.84-1.47l-1.74-1.54c-.426667.3866667-.84.6666667-1.24.84s-.853333.26-1.36.26c-.68 0-1.25-.1766667-1.71-.53s-.763333-.8766667-.91-1.57h7.46c.013333-.14666667.023333-.28666667.03-.42s.01-.26.01-.38c0-.76-.103333-1.49-.31-2.19s-.526667-1.32-.96-1.86-.976667-.97-1.63-1.29-1.426667-.48-2.32-.48c-.786667 0-1.503333.14666667-2.15.44s-1.203333.69333333-1.67 1.2-.83 1.1-1.09 1.78-.39 1.4-.39 2.16v.04c0 .82666667.14 1.5766667.42 2.25s.67 1.2566667 1.17 1.75 1.093333.8733333 1.78 1.14 1.43.4 2.23.4zm1.96-6.44h-4.58c.12-.69333333.376667-1.24666667.77-1.66s.91-.62 1.55-.62 1.153333.21 1.54.63.626667.97.72 1.65zm8.56 6.2v-9.08l3.9 5.92h.08l3.94-5.98v9.14h3.06v-14h-3.32l-3.68 5.92-3.68-5.92h-3.32v14zm17.06.2c.746667 0 1.38-.1233333 1.9-.37s.966667-.5766667 1.34-.99v1.16h2.94v-6.22c0-.72-.093333-1.37-.28-1.95s-.48-1.07-.88-1.47c-.386667-.38666667-.876667-.68333333-1.47-.89s-1.31-.31-2.15-.31c-.906667 0-1.68.08-2.32.24s-1.253333.36666667-1.84.62l.76 2.32c.493333-.18666667.963333-.33 1.41-.43s.963333-.15 1.55-.15c.76 0 1.333333.16666667 1.72.5s.58.82.58 1.46v.18c-.386667-.13333333-.783333-.24-1.19-.32s-.883333-.12-1.43-.12c-.64 0-1.223333.07-1.75.21s-.98.35-1.36.63-.676667.63333333-.89 1.06c-.213333.4266667-.32.9333333-.32 1.52v.04c0 .5333333.096667 1.0033333.29 1.41s.456667.75.79 1.03.723333.49 1.17.63.923333.21 1.43.21zm.92-2.1c-.493333 0-.893333-.1133333-1.2-.34s-.46-.5466667-.46-.96v-.04c0-.48.186667-.8466667.56-1.1.373333-.25333333.886667-.38 1.54-.38.373333 0 .723333.03666667 1.05.11s.623333.17.89.29v.54c0 .56-.216667 1.0133333-.65 1.36s-1.01.52-1.73.52zm10.92 5.1v-4.6c.36.4266667.803333.8 1.33 1.12s1.196667.48 2.01.48c.64 0 1.253333-.12 1.84-.36s1.103333-.5966667 1.55-1.07.806667-1.0533333 1.08-1.74.41-1.47666667.41-2.37v-.04c0-.89333333-.136667-1.68333333-.41-2.37s-.636667-1.26666667-1.09-1.74-.973333-.83-1.56-1.07-1.193333-.36-1.82-.36c-.8 0-1.463333.16333333-1.99.49s-.976667.74333333-1.35 1.25v-1.54h-3.04v13.92zm2.56-5.58c-.36 0-.696667-.07-1.01-.21s-.586667-.34-.82-.6-.42-.5733333-.56-.94c-.14-.36666667-.21-.77-.21-1.21v-.04c0-.44.07-.84333333.21-1.21s.326667-.68.56-.94.506667-.46.82-.6.65-.21 1.01-.21.696667.07 1.01.21.59.34.83.6.43.57333333.57.94.21.77.21 1.21v.04c0 .45333333-.07.86-.21 1.22s-.33.67-.57.93-.516667.46-.83.6-.65.21-1.01.21z" fill="#86e2ff"/></g></svg>